<?xml version="1.0" encoding="utf-8"?>
<!-- Generator: Adobe Illustrator 22.0.1, SVG Export Plug-In . SVG Version: 6.00 Build 0)  -->
<svg version="1.1" xmlns="http://www.w3.org/2000/svg" xmlns:xlink="http://www.w3.org/1999/xlink" x="0px" y="0px"
	 viewBox="0 0 679.7 357" style="enable-background:new 0 0 679.7 357;" xml:space="preserve">
<style type="text/css">
	.st0{fill:#EFC700;}
</style>
<g id="Background">
</g>
<g id="Graphic_Elements">
	<g>
		<path class="st0" d="M656.8,342.6c-3,0-6.1-1.2-8.4-3.5L346.8,41.2c-3.8-3.8-10-3.8-13.8,0L31.3,339.1c-4.7,4.7-12.3,4.6-17-0.1
			c-4.7-4.7-4.6-12.3,0.1-17L316.1,24.2c13.1-12.9,34.4-12.9,47.6,0L665.2,322c4.7,4.7,4.8,12.3,0.1,17
			C663,341.4,659.9,342.6,656.8,342.6z"/>
		<path class="st0" d="M554.6,241.7c-6.6,0-12-5.4-12-12V98.8c0-6.6,5.4-12,12-12s12,5.4,12,12v130.9
			C566.6,236.3,561.3,241.7,554.6,241.7z"/>
		<g>
			<path class="st0" d="M328.1,237.4H292c-3.2,0-5.7-2.6-5.7-5.7v-36.1c0-3.2,2.6-5.7,5.7-5.7h36.1c3.2,0,5.7,2.6,5.7,5.7v36.1
				C333.8,234.9,331.3,237.4,328.1,237.4z"/>
			<path class="st0" d="M387.7,237.4h-36.1c-3.2,0-5.7-2.6-5.7-5.7v-36.1c0-3.2,2.6-5.7,5.7-5.7h36.1c3.2,0,5.7,2.6,5.7,5.7v36.1
				C393.4,234.9,390.9,237.4,387.7,237.4z"/>
			<path class="st0" d="M387.7,297h-36.1c-3.2,0-5.7-2.6-5.7-5.7v-36.1c0-3.2,2.6-5.7,5.7-5.7h36.1c3.2,0,5.7,2.6,5.7,5.7v36.1
				C393.4,294.5,390.9,297,387.7,297z"/>
			<path class="st0" d="M328.1,297H292c-3.2,0-5.7-2.6-5.7-5.7v-36.1c0-3.2,2.6-5.7,5.7-5.7h36.1c3.2,0,5.7,2.6,5.7,5.7v36.1
				C333.8,294.5,331.3,297,328.1,297z"/>
		</g>
	</g>
</g>
<g id="Text">
</g>
</svg>
